<svg xmlns="http://www.w3.org/2000/svg" viewBox="0 0 115.77 30.9"><defs><style>.cls-1{fill:#253b56;}</style></defs><title>Asset 4</title><g id="Layer_2" data-name="Layer 2"><g id="Layer_1-2" data-name="Layer 1"><path class="cls-1" d="M90.08,26.68h0v2.71h.55v-.84h.55l.56.84h.69l-.67-1a.85.85,0,0,0,.6-.8.91.91,0,0,0-1-.94H90.08m1.22.52a.42.42,0,1,1,0,.83h-.7V27.2Z"/><path class="cls-1" d="M96,26.68H94v2.71h2.1v-.53H94.52v-.6H95.6v-.53H94.52V27.2h1.55v-.52Z"/><path class="cls-1" d="M97.53,27.45c0,.65.59.73,1.07.79s.64.09.64.31-.23.36-.6.37a1.06,1.06,0,0,1-.76-.35l0,0-.43.37,0,0a1.62,1.62,0,0,0,1.16.49c.58,0,1.2-.32,1.2-.91s-.6-.74-1.08-.8-.63-.08-.63-.3.16-.33.52-.33a1,1,0,0,1,.7.3l0,0,.41-.37,0,0a1.48,1.48,0,0,0-1.08-.41c-.65,0-1.13.36-1.13.83Z"/><path class="cls-1" d="M102.79,26.62A1.41,1.41,0,1,0,104.24,28a1.42,1.42,0,0,0-1.45-1.41h0m0,2.3a.89.89,0,0,1,0-1.77.89.89,0,0,1,0,1.77Z"/><path class="cls-1" d="M107.16,28.42a.84.84,0,0,0,.6-.8.9.9,0,0,0-1-.94h-1.3v2.71H106v-.84h.55l.55.84h.7l-.68-1h0m-.42-.39H106V27.2h.7a.42.42,0,1,1,0,.83Z"/><path class="cls-1" d="M111.09,26.68H109v.52h.78v2.19h.55V27.2h.78v-.52Z"/><path class="cls-1" d="M113.92,24.37a.82.82,0,0,1,.83-.84.85.85,0,0,1,0,1.69.83.83,0,0,1-.83-.85h0m.83,1a1,1,0,0,0,0-2,1,1,0,1,0,0,2h0m-.22-.94h.21l.31.51h.2l-.34-.51a.31.31,0,0,0,.3-.33c0-.23-.13-.33-.41-.33h-.44V25h.17v-.51h0m0-.15v-.36h.25c.12,0,.25,0,.25.17s-.13.19-.28.19Z"/><path class="cls-1" d="M3.9,5A7.77,7.77,0,0,1,0,0C1.56,2,5.59,2.56,9.55,2.6c7,.09,10.27,2.72,11.09,11.74.78,8.62-3.53,10.88-7.71,15C9.69,27,4.44,27.05,1.11,27.87a15.06,15.06,0,0,1,5-2.93c1-1.76.61-4.29.09-8.06-.84-6.09.45-8.06,2.76-10.45A15.76,15.76,0,0,1,3.9,5h0m6.69,1.72c-1.23,1.4-.73,4-.44,7.84.47,6.38.69,8-1.91,9.94a14.06,14.06,0,0,1,6.5,1.26c2.89-2.75,2.19-6.62,1.83-10.61-.57-6.6-2.68-7.86-5-8.26l-1-.17Z"/><path class="cls-1" d="M32.73,8.08a5,5,0,0,1,4.47,3.6l-2.6,1.93c-.64-1.66-1.41-3.3-3.43-3a3.11,3.11,0,0,0,.24,3.15c.95,1.05,2.43,1.49,3.85,2.29a3.66,3.66,0,0,1,2.21,3.72,4.24,4.24,0,0,1-1.17,2.9l-4,2.94A5.57,5.57,0,0,1,28,21.75c.84-.78,1.78-1.36,2.67-2.11.45,1.38,1.1,3.48,3.25,3.35.41-.65.7-2.53,0-3.31-1-1-2.43-1.49-3.85-2.29a3.92,3.92,0,0,1-2.21-3.72,4.53,4.53,0,0,1,1.72-3.34l3.18-2.25Z"/><path class="cls-1" d="M42,12.09c0,.17,0,.34,0,.51V21a2.35,2.35,0,0,0,1.37,2.23l-2.83,2.22c-1.78-1.18-2-2.61-2-4.45V12.6a2.36,2.36,0,0,0-1.37-2.23L40,8.15a4,4,0,0,1,1.82,2.52L45,8.15a4.66,4.66,0,0,1,3.14,4.45V21a2.35,2.35,0,0,0,1.37,2.23L46.7,25.47c-1.78-1.18-2-2.61-2-4.45V12.6a1.74,1.74,0,0,0-1.19-1.74L42,12.09Z"/><path class="cls-1" d="M52.89,18.46A10.69,10.69,0,0,0,53.43,20c1.22,2.64,4.39,2.82,5.77,2.29l-3.86,3.15c-3.76-.24-5.78-3.72-5.78-8.48s2-6.9,3.75-7.81L55.64,8l3,5.9-5.79,4.61h0M52.6,17l2.88-2.3-2.1-4.06c-.9,1.12-1.15,3.85-.78,6.36Z"/><path class="cls-1" d="M58.25,10.37l2.83-2.22c1.78,1.19,2,2.62,2,4.45v7.94a2.06,2.06,0,0,0,1.51,2l1.29-1.09V12.6a2.36,2.36,0,0,0-1.37-2.23l2.83-2.22c1.77,1.19,2,2.62,2,4.45v8.74c0,1.78.62,3.45.62,5.48,0,2.29-2.54,4.08-6,4.08-3.09,0-6-1.39-6.06-3.63A3.64,3.64,0,0,1,59,24.57l2.5,2.25c-.67.83-.72,3.06,2.16,3.06,2,0,3.36-1.13,3.17-2.85s-.83-3.22-.83-4l-2.91,2.43a4.82,4.82,0,0,1-3.44-4.14V12.6a2.35,2.35,0,0,0-1.38-2.23Z"/><path class="cls-1" d="M76.4,23.24l-2.83,2.23c-1.78-1.18-2-2.61-2-4.45V5.6a2.16,2.16,0,0,0-1.36-2.22L73,1.15c1.78,1.22,2,2.61,2,4.45V21a2.33,2.33,0,0,0,1.37,2.22Z"/><path class="cls-1" d="M80.9,25.43c-3-.72-4.26-4-3.83-9.47.21-2.64,1.31-5.05,2.53-5.92l3-2c2.38.54,4.21,2.48,4.21,4.56v8.74c0,.78.94,1.56,2,1.7l-2.69,2.39a3.83,3.83,0,0,1-2.48-2.59L80.9,25.43h0M83.37,12.6c0-.89-1.21-1.92-2.51-2a15.37,15.37,0,0,0-.64,8.91,3.52,3.52,0,0,0,2.3,2.64c.8-.73.85-.84.85-1.59v-8Z"/><path class="cls-1" d="M92.88,12.09c0,.17,0,.34,0,.51V21a2.35,2.35,0,0,0,1.37,2.23l-2.82,2.22c-1.78-1.18-2-2.61-2-4.45V12.6a2.36,2.36,0,0,0-1.37-2.23l2.83-2.22a3.94,3.94,0,0,1,1.81,2.52L96,8.15a4.65,4.65,0,0,1,3.14,4.45V21a2.36,2.36,0,0,0,1.38,2.23l-2.83,2.22c-1.78-1.18-2-2.61-2-4.45V12.6a1.76,1.76,0,0,0-1.19-1.74l-1.58,1.23Z"/><path class="cls-1" d="M107.6,20.43c0,.91-.43,1.26-1.24,1.94a4.11,4.11,0,0,1-2.15-3,17.44,17.44,0,0,1,.17-8.44c1.31,0,3.21,2,3.21,2.79v6.7h0M106.15,8.18,103.35,10c-1.23.87-2.32,3.28-2.53,5.92-.43,5.44,1.38,8.75,4.38,9.47l2.69-2.57a4.59,4.59,0,0,0,2.38,2.55L113,23.25c-.78-.31-2-1-2-2.23V5.6a4.73,4.73,0,0,0-2.19-4.45l-2.8,2.23a2.52,2.52,0,0,1,1.54,2.38V9.38a4.19,4.19,0,0,0-1.46-1.2Z"/><path class="cls-1" d="M27.54,23.25l-2.83,2.22c-1.78-1.18-2-2.61-2-4.45V12.6a2.37,2.37,0,0,0-1.38-2.23l2.83-2.22c1.77,1.19,2,2.62,2,4.45V21a2.34,2.34,0,0,0,1.38,2.23Z"/><path class="cls-1" d="M24,3.42,21.15,5.66A3.76,3.76,0,0,0,24,7.5a3.91,3.91,0,0,0,3.26-2.64c-1.64.58-2.53-.55-3.22-1.44Z"/></g></g></svg>