<?xml version="1.0" encoding="UTF-8"?>
<svg id="Calque_2" data-name="Calque 2" xmlns="http://www.w3.org/2000/svg" xmlns:xlink="http://www.w3.org/1999/xlink" viewBox="0 0 123.6 100.31">
  <defs>
    <style>
      .cls-1 {
        fill: url(#Degradado_sin_nombre_11);
        stroke-width: 0px;
      }
    </style>
    <linearGradient id="Degradado_sin_nombre_11" data-name="Degradado sin nombre 11" x1="-5.42" y1="83.2" x2="518.47" y2="83.2" gradientTransform="translate(0 133.35) scale(1 -1)" gradientUnits="userSpaceOnUse">
      <stop offset="0" stop-color="#4dc0ef"/>
      <stop offset=".06" stop-color="#48abe0"/>
      <stop offset=".19" stop-color="#3b76b8"/>
      <stop offset=".25" stop-color="#345aa3"/>
      <stop offset=".3" stop-color="#4056a0"/>
      <stop offset=".4" stop-color="#604c98"/>
      <stop offset=".5" stop-color="#893f8e"/>
      <stop offset=".75" stop-color="#e62d6b"/>
      <stop offset=".99" stop-color="#5b4091"/>
    </linearGradient>
  </defs>
  <path class="cls-1" d="M46.8,82.2c-14.6-5.7-24.7-13.9-24.7-18.8,0-3.4,13-4.7,25.3-5.1-.3,7.7-.6,16.6-.6,23.9ZM58.3,93.8c6.7,2.1,13.4,3.4,19.3,3.4,22.5,0,46-13.2,46-34C123.6,35.4,74,0,28.5,0,15.3,0,8,1.9,5.5,3.4,3.6,4.6,0,8.4,0,10c0,3.6,4.1,3.7,6,3.7,1.8,0,4.2-.4,4.2-2,0-1.1-.9-1.7-1.7-1.7s-4.2,1.2-4.2-.8c0-1.6,10.1-2.6,18.6-2.6,49.9,0,89.3,34.9,89.3,56.7,0,13.1-11.4,25-33.6,25-7.1,0-14-1-20.5-2.6-.2-5.5-.4-17.3-.5-27.7h3.9c9.3,0,25.4,2.6,25.4,5.8s-3.8,4.6-5.4,5.2c-1.1.5.1,1.2.9,1.6s1.7.7,3.2.7c3.6,0,9.5-3.8,9.5-8.7,0-7-10.2-14.7-31.2-14.7-1.6,0-3.8.1-6.3.3,0-4.3.1-7.7.2-9.2.4-4.5-1.8-9.9-3.3-11.6-1.4-1.7-3.2-1.9-4.1.8-.9,2.6-2.2,10.3-2.4,12.6,0,.6-.2,3.9-.4,8.7-13.6,2.1-29.2,6.6-29.2,14,0,7.9,13,18.6,28.5,25.8.1,1.5.1,2.8.2,3.9.3,2.8.5,7.1,6.1,7.1,3.6.2,4.8-2.8,5.1-6.5Z"/>
</svg>
